<svg xmlns="http://www.w3.org/2000/svg" width="500" height="500" viewBox="0 0 500 500" version="1.1">
	<path d="M 252 112 C 167.288 112.561, 173.858 111.952, 161.117 120.422 C 153.556 125.449, 147.039 133.328, 142.745 142.634 L 140.500 147.500 140.219 223.500 L 139.937 299.500 193.460 352.750 C 244.215 403.247, 247.167 406, 250.570 406 C 253.976 406, 256.878 403.283, 307.579 352.630 C 353.152 307.100, 361 298.841, 361 296.411 C 361 294.050, 357.960 290.533, 343.250 275.882 C 326.640 259.337, 325.300 258.233, 322.385 258.694 C 319.897 259.088, 312.376 266.102, 284.945 293.613 C 266.065 312.548, 250.277 327.918, 249.860 327.770 C 249.442 327.621, 237.613 316.089, 223.573 302.141 L 198.046 276.783 197.970 246.696 L 197.893 216.609 241.197 173.348 L 284.500 130.087 298.268 129.894 C 305.840 129.788, 312.267 129.933, 312.550 130.217 C 312.833 130.500, 301.013 142.593, 286.282 157.091 C 271.552 171.589, 249.262 193.598, 236.750 206 L 214 228.548 214.014 237.524 C 214.029 247.388, 214.653 251, 216.344 251 C 216.955 251, 239.065 229.497, 265.478 203.215 C 291.890 176.933, 319.945 149.146, 327.822 141.465 C 340.558 129.045, 351 116.274, 351 113.116 C 351 111.362, 349.991 111.351, 252 112 M 198.352 130.241 C 198.011 130.791, 197.665 182.549, 197.955 189.581 C 197.980 190.176, 211.490 177.153, 227.977 160.642 C 244.465 144.131, 257.755 130.422, 257.511 130.178 C 256.738 129.404, 198.833 129.466, 198.352 130.241 M 172.964 133.813 C 166.758 137.756, 162.546 142.884, 160.361 149.159 C 158.662 154.035, 158.500 158.116, 158.500 196 L 158.500 237.500 168.385 247.281 C 173.822 252.661, 178.439 256.894, 178.646 256.688 C 179.436 255.897, 179.060 131.520, 178.266 131.255 C 177.806 131.102, 175.420 132.253, 172.964 133.813 M 158 277.214 L 158 291.428 189.729 323.214 C 207.180 340.696, 221.979 355, 222.615 355 C 224.427 355, 236 343.410, 236 341.595 C 236 340.051, 160.241 263, 158.723 263 C 158.326 263, 158 269.396, 158 277.214 M 279.122 325.378 C 255.268 349.236, 235.920 369.210, 236.126 369.764 C 236.612 371.074, 249.815 383.002, 250.770 382.994 C 251.171 382.990, 270.512 363.949, 293.750 340.681 C 320.997 313.397, 335.984 297.686, 335.956 296.437 C 335.911 294.493, 325.021 282, 323.371 282 C 322.887 282, 302.975 301.520, 279.122 325.378" stroke="none" fill="#fcc42a" fill-rule="evenodd"/>
</svg>